HIERARCHY
ROOT Hips
{
 OFFSET 0.000000 0.000000 0.000000
 CHANNELS 6 Xposition Yposition Zposition Yrotation Xrotation Zrotation
 JOINT Chest
 {
  OFFSET 0.000000 10.354800 0.006500
  CHANNELS 3 Yrotation Xrotation Zrotation
  JOINT Chest2
  {
   OFFSET 0.000000 10.435800 -0.013200
   CHANNELS 3 Yrotation Xrotation Zrotation
   JOINT Chest3
   {
    OFFSET 0.000000 10.393700 0.000000
    CHANNELS 3 Yrotation Xrotation Zrotation
    JOINT Chest4
    {
     OFFSET 0.000000 10.383100 0.000000
     CHANNELS 3 Yrotation Xrotation Zrotation
     JOINT Neck
     {
      OFFSET 0.000000 15.694000 0.000000
      CHANNELS 3 Yrotation Xrotation Zrotation
      JOINT Head
      {
       OFFSET 0.000000 9.711000 -0.028000
       CHANNELS 3 Yrotation Xrotation Zrotation
       End Site
       {
        OFFSET 0.000000 18.578700 -0.014800
       }
      }
     }
     JOINT RightCollar
     {
      OFFSET -3.157200 10.367500 0.000000
      CHANNELS 3 Yrotation Xrotation Zrotation
      JOINT RightShoulder
      {
       OFFSET -14.482500 0.000000 0.000000
       CHANNELS 3 Yrotation Xrotation Zrotation
       JOINT RightElbow
       {
        OFFSET 0.000000 -31.707800 0.000000
        CHANNELS 3 Yrotation Xrotation Zrotation
        JOINT RightWrist
        {
         OFFSET 0.000000 -25.659300 0.000000
         CHANNELS 3 Yrotation Xrotation Zrotation
         End Site
         {
          OFFSET 0.000000 -18.994300 0.000000
         }
        }
       }
      }
     }
     JOINT LeftCollar
     {
      OFFSET 3.157200 10.367500 0.000000
      CHANNELS 3 Yrotation Xrotation Zrotation
      JOINT LeftShoulder
      {
       OFFSET 14.482500 0.000000 0.000000
       CHANNELS 3 Yrotation Xrotation Zrotation
       JOINT LeftElbow
       {
        OFFSET 0.000000 -31.707800 0.000000
        CHANNELS 3 Yrotation Xrotation Zrotation
        JOINT LeftWrist
        {
         OFFSET 0.000000 -25.659300 0.000000
         CHANNELS 3 Yrotation Xrotation Zrotation
         End Site
         {
          OFFSET 0.000000 -18.994300 0.000000
         }
        }
       }
      }
     }
    }
   }
  }
 }
 JOINT RightHip
 {
  OFFSET -8.365600 -0.032100 -0.003200
  CHANNELS 3 Yrotation Xrotation Zrotation
  JOINT RightKnee
  {
   OFFSET 0.000000 -43.980000 0.003100
   CHANNELS 3 Yrotation Xrotation Zrotation
   JOINT RightAnkle
   {
    OFFSET 0.000000 -42.882800 0.005200
    CHANNELS 3 Yrotation Xrotation Zrotation
    JOINT RightToe
    {
     OFFSET 0.000000 -4.915500 10.826300
     CHANNELS 3 Yrotation Xrotation Zrotation
     End Site
     {
      OFFSET 0.000000 -1.517500 6.175900
     }
    }
   }
  }
 }
 JOINT LeftHip
 {
  OFFSET 8.365600 -0.032100 -0.003200
  CHANNELS 3 Yrotation Xrotation Zrotation
  JOINT LeftKnee
  {
   OFFSET 0.000000 -43.980000 0.003100
   CHANNELS 3 Yrotation Xrotation Zrotation
   JOINT LeftAnkle
   {
    OFFSET 0.000000 -42.882800 0.005200
    CHANNELS 3 Yrotation Xrotation Zrotation
    JOINT LeftToe
    {
     OFFSET 0.000000 -4.915500 10.826300
     CHANNELS 3 Yrotation Xrotation Zrotation
     End Site
     {
      OFFSET 0.000000 -1.517500 6.175900
     }
    }
   }
  }
 }
}
MOTION
Frames: 15
Frame Time: 0.008333
0.623022 126.644877 41.408907 173.981615 -22.481349 -2.896107 -2.087059 13.145172 3.086429 -0.217170 1.070433 0.267665 -0.338710 1.846326 0.462922 -1.887309 11.803649 2.810919 -7.828390 17.108202 -1.331168 -8.139767 -7.518283 0.363443 7.911492 3.392901 -5.661114 7.558259 -34.342778 -22.603304 -90.851715 -57.327964 98.292783 -24.504009 -5.570370 -26.986460 -7.063007 6.585550 -0.650560 11.701695 -37.276315 -0.366451 86.055681 -49.602996 -95.655610 29.910663 -0.344350 17.433208 9.138115 -59.673862 2.378268 -85.308616 81.642706 -78.474345 3.266102 0.507047 -18.787918 -0.011105 -0.021213 -0.005041 -14.925018 -59.452867 11.847603 76.932950 80.862782 70.843304 -4.600784 -6.982312 1.349231 0.007368 0.006346 0.003345
0.616952 126.650401 41.414606 173.958561 -22.582802 -2.892712 -2.078559 13.229296 3.076370 -0.231652 1.061051 0.265137 -0.333791 1.868736 0.467314 -1.904267 11.863116 2.811277 -7.646776 17.105336 -1.340979 -7.931326 -7.529354 0.308941 7.898025 3.438934 -5.632813 7.303410 -34.223677 -22.326122 -91.258393 -57.366339 98.848652 -24.144052 -5.309973 -26.827212 -7.061575 6.579492 -0.693142 11.919933 -37.081822 -0.569422 86.223495 -49.828089 -95.936398 29.708763 -0.067955 17.951712 9.161745 -59.564649 2.428561 -84.742358 81.910116 -77.852798 2.841406 0.523644 -18.831382 -0.035056 -0.030498 -0.015909 -14.842104 -59.360649 11.778963 76.748675 80.845676 70.670793 -4.610314 -6.959010 1.343949 0.018536 0.012731 0.008418
0.620418 126.658041 41.417368 173.960170 -22.703249 -2.946965 -2.123411 13.273170 3.089473 -0.198231 1.120348 0.281421 -0.344509 1.879787 0.467651 -1.913932 11.925049 2.813000 -7.452542 17.099544 -1.352247 -7.709702 -7.543732 0.250409 7.883239 3.494328 -5.603236 6.996900 -34.086962 -22.025129 -91.690230 -57.437527 99.475863 -23.785969 -5.092365 -26.665920 -7.056068 6.570886 -0.735798 12.193526 -36.852487 -0.812768 86.390870 -50.115611 -96.258459 29.477540 0.231206 18.501864 9.161233 -59.419562 2.543382 -84.181291 82.107423 -77.205852 2.453334 0.425763 -18.906563 -0.012327 -0.014688 -0.005595 -14.829709 -59.250212 11.771290 76.641149 80.827839 70.592014 -4.595123 -6.921703 1.343843 0.005769 0.002422 0.002620
0.622155 126.665267 41.419977 173.954214 -22.814956 -2.985665 -2.131402 13.343473 3.108161 -0.180353 1.156371 0.291754 -0.375803 1.869828 0.461685 -1.918021 11.990048 2.820139 -7.245525 17.089419 -1.369501 -7.476361 -7.558307 0.188642 7.866936 3.561813 -5.576366 6.637212 -33.931173 -21.705501 -92.146407 -57.547672 100.176163 -23.441696 -4.917427 -26.484405 -7.041926 6.560506 -0.780299 12.521875 -36.578730 -1.092098 86.564406 -50.452392 -96.641430 29.222387 0.541664 19.078468 9.223203 -59.271950 2.595622 -83.789305 82.254196 -76.721590 2.190445 0.282577 -18.933838 -0.002366 -0.009526 -0.001074 -14.821063 -59.141409 11.774180 76.554095 80.815193 70.515069 -4.594095 -6.902503 1.342421 0.004809 0.001508 0.002184
0.621981 126.669694 41.427442 173.950346 -22.883260 -3.013921 -2.140305 13.369875 3.120021 -0.190071 1.167306 0.289971 -0.371635 1.884364 0.467551 -1.966291 12.071634 2.817902 -6.995799 17.060448 -1.384871 -7.232846 -7.566320 0.123178 7.881273 3.620434 -5.549438 6.247790 -33.746810 -21.383331 -92.647389 -57.698680 100.949292 -23.125437 -4.781927 -26.271163 -6.983741 6.532219 -0.819321 12.897998 -36.251553 -1.395762 86.757599 -50.824430 -97.105897 28.957810 0.857809 19.677883 9.312279 -59.172445 2.584612 -83.701543 82.371317 -76.560198 2.126029 0.098663 -18.900657 0.009249 -0.003069 0.004199 -14.816272 -59.076575 11.777554 76.522679 80.806955 70.493616 -4.592962 -6.898592 1.340251 0.005258 0.004779 0.002387
0.620095 126.673329 41.434275 173.953571 -22.937217 -3.030991 -2.151094 13.392535 3.124297 -0.209300 1.139424 0.284834 -0.360281 1.922704 0.475419 -1.983702 12.107796 2.817677 -6.776860 17.076566 -1.403376 -6.981648 -7.562463 0.053067 7.859610 3.724797 -5.509683 5.861584 -33.516491 -21.075144 -93.228798 -57.884758 101.806411 -22.844536 -4.688292 -26.026833 -6.949495 6.540314 -0.861285 13.303075 -35.860087 -1.703596 86.982271 -51.221052 -97.661307 28.694588 1.170177 20.299843 9.351501 -59.101462 2.579065 -83.983341 82.463969 -76.823609 2.194101 -0.135157 -18.801372 0.015723 -0.004725 0.007138 -14.810215 -59.025152 11.770496 76.426214 80.797852 70.398900 -4.595246 -6.883319 1.341337 0.006300 0.006380 0.002861
0.618751 126.679241 41.433239 173.973186 -23.018909 -3.048191 -2.171635 13.435671 3.125819 -0.216302 1.136167 0.284066 -0.360522 1.940884 0.478462 -2.005845 12.133326 2.816804 -6.553261 17.104371 -1.424972 -6.725538 -7.545814 -0.021242 7.864881 3.783768 -5.491850 5.451345 -33.174022 -20.747982 -93.906325 -58.089175 102.756760 -22.599901 -4.641548 -25.756318 -6.906237 6.544661 -0.910335 13.692976 -35.401016 -1.984315 87.271964 -51.641313 -98.310623 28.445375 1.469708 20.946965 9.473720 -58.994700 2.507611 -84.518019 82.498662 -77.304230 2.168098 -0.439970 -18.618748 0.016757 0.003267 0.007609 -14.794681 -58.946932 11.740462 76.307059 80.802218 70.266070 -4.584114 -6.861561 1.358363 -0.000501 0.002543 -0.000227
0.615377 126.684643 41.430211 174.000696 -23.090848 -3.051183 -2.198991 13.461530 3.113082 -0.217964 1.166330 0.284408 -0.365117 1.929715 0.479522 -2.032123 12.147730 2.813981 -6.325736 17.144707 -1.447506 -6.465802 -7.515333 -0.097291 7.821058 3.934813 -5.430577 5.123444 -32.855764 -20.495230 -94.674506 -58.288970 103.805708 -22.393187 -4.634057 -25.467875 -6.868515 6.556810 -0.940412 14.055644 -34.879202 -2.247341 87.669682 -52.093906 -99.061192 28.225626 1.751343 21.612754 9.567782 -58.909064 2.437538 -85.383096 82.511006 -78.147237 2.075152 -0.809361 -18.371905 0.005447 0.010549 0.002474 -14.734652 -58.883461 11.656315 76.299121 80.802497 70.263368 -4.584159 -6.859878 1.368894 -0.003778 0.001076 -0.001715
0.612637 126.688891 41.427309 174.035336 -23.143085 -3.055548 -2.230099 13.497119 3.101635 -0.220211 1.167542 0.282784 -0.367501 1.923335 0.482180 -2.061687 12.141173 2.807477 -6.095080 17.198650 -1.468840 -6.203851 -7.469740 -0.172712 7.759507 4.101102 -5.368720 4.799174 -32.493480 -20.240312 -95.512718 -58.461872 104.952480 -22.223559 -4.647851 -25.170844 -6.830418 6.582376 -0.970675 14.373907 -34.303473 -2.470819 88.166181 -52.579693 -99.912066 28.036798 2.006805 22.280036 9.585416 -58.857307 2.409817 -86.557042 82.520218 -79.340814 2.016547 -1.240901 -18.105111 -0.008649 0.012250 -0.003928 -14.633086 -58.844392 11.537282 76.274179 80.807014 70.277267 -4.588640 -6.860753 1.376948 -0.001140 -0.000392 -0.000518
0.608355 126.691923 41.424341 174.080075 -23.177007 -3.050709 -2.273550 13.514917 3.079420 -0.220828 1.151084 0.284536 -0.370423 1.948958 0.479087 -2.090364 12.103806 2.797744 -5.863414 17.264878 -1.487243 -5.942609 -7.410433 -0.245127 7.685882 4.255675 -5.316244 4.451754 -32.073792 -19.957918 -96.380845 -58.595231 106.173994 -22.084718 -4.673912 -24.876403 -6.737604 6.636372 -1.065765 14.581679 -33.707274 -2.595811 88.719554 -53.089424 -100.858521 27.872040 2.227320 22.929576 9.594113 -58.828884 2.362796 -87.970182 82.533409 -80.781840 2.000933 -1.728457 -17.868644 -0.015869 0.011501 -0.007207 -14.606152 -58.816347 11.465435 76.298466 80.808879 70.299177 -4.591256 -6.862375 1.381239 -0.000358 -0.001970 -0.000162
0.605296 126.694552 41.420325 174.128879 -23.203817 -3.049629 -2.313289 13.507117 3.061092 -0.223842 1.149989 0.283797 -0.375299 1.947130 0.477758 -2.116729 12.083580 2.784603 -5.633412 17.339659 -1.501418 -5.685280 -7.341259 -0.312524 7.588480 4.419292 -5.258520 4.092760 -31.632614 -19.663997 -97.242099 -58.694775 107.440250 -21.975959 -4.714514 -24.595563 -6.641153 6.715761 -1.135473 14.809639 -33.068787 -2.744112 89.300516 -53.613279 -101.890146 27.733891 2.405412 23.543789 9.595410 -58.812074 2.313423 -89.552179 82.553217 -82.377839 1.995506 -2.253284 -17.706615 -0.017754 0.010057 -0.008062 -14.537470 -58.799413 11.364600 76.387830 80.814638 70.403049 -4.599565 -6.876772 1.396076 -0.002316 -0.002460 -0.001051
0.602190 126.697095 41.414688 174.240460 -23.226472 -3.069023 -2.403096 13.495891 3.038290 -0.226694 1.147221 0.282707 -0.380434 1.942462 0.475961 -2.141432 12.061905 2.774175 -5.408545 17.417993 -1.510992 -5.435644 -7.267487 -0.373682 7.469284 4.594096 -5.196419 3.708782 -31.182295 -19.356859 -98.078575 -58.780176 108.734306 -21.899555 -4.767604 -24.333612 -6.538650 6.810907 -1.187636 15.044742 -32.384618 -2.895344 89.901704 -54.136982 -102.999840 27.630799 2.533080 24.106971 9.547124 -58.793895 2.254452 -91.237202 82.579014 -84.058773 1.961229 -2.800412 -17.625741 -0.016049 0.007690 -0.007288 -14.462284 -58.787469 11.226156 76.419897 80.834825 70.475242 -4.615230 -6.895858 1.408567 0.005286 -0.000504 0.002400
0.602678 126.698240 41.411814 174.276484 -23.231542 -3.077975 -2.385710 13.432495 3.044774 -0.261810 1.174865 0.281388 -0.384397 1.935572 0.473916 -2.157917 12.038012 2.762472 -5.190026 17.495862 -1.514756 -5.195180 -7.193559 -0.427053 7.325158 4.791094 -5.130926 3.294870 -30.736250 -19.035130 -98.891372 -58.867566 110.050618 -21.845029 -4.822230 -24.093836 -6.418649 6.922061 -1.229850 15.264307 -31.656920 -3.026744 90.526107 -54.641721 -104.190810 27.558185 2.600626 24.607454 9.556997 -58.805403 2.218667 -92.984447 82.596632 -85.783920 1.923084 -3.362685 -17.608997 -0.009563 0.010167 -0.004342 -14.417985 -58.786181 11.183802 76.569679 80.857155 70.632955 -4.623301 -6.920052 1.413139 0.006047 -0.000211 0.002745
0.602197 126.698804 41.409123 174.349771 -23.228504 -3.095411 -2.422088 13.399724 3.038953 -0.265668 1.169315 0.283195 -0.355940 1.881526 0.464085 -2.206855 12.054728 2.755828 -4.976665 17.570641 -1.512800 -4.962508 -7.122389 -0.473157 7.158327 5.010390 -5.060406 2.865000 -30.290112 -18.710171 -99.690568 -58.957200 111.375365 -21.793129 -4.864359 -23.867755 -6.276482 7.050175 -1.254262 15.467155 -30.886038 -3.143157 91.165016 -55.106065 -105.455782 27.503765 2.600853 25.043542 9.560040 -58.824227 2.162741 -94.798643 82.583635 -87.568468 1.903789 -3.945785 -17.622553 -0.002090 0.008315 -0.000949 -14.391177 -58.792677 11.134888 76.727569 80.888798 70.799959 -4.642065 -6.953855 1.431371 0.010650 0.001016 0.004836
0.601025 126.700076 41.404015 174.394800 -23.238758 -3.096768 -2.429628 13.380528 3.028380 -0.242082 1.135229 0.277688 -0.381394 1.899613 0.465945 -2.234910 12.061769 2.753538 -4.758001 17.602452 -1.513624 -4.738876 -7.057015 -0.513942 6.982932 5.202753 -4.999053 2.445301 -29.827176 -18.400363 -100.491762 -59.042780 112.690244 -21.731970 -4.881303 -23.638814 -6.099252 7.156821 -1.267075 15.643820 -30.077194 -3.245074 91.816560 -55.508298 -106.787157 27.463870 2.542397 25.425744 9.566575 -58.820192 2.121998 -96.553894 82.535568 -89.316107 1.928292 -4.568779 -17.626845 -0.000965 0.012566 -0.000438 -14.347942 -58.785470 11.097952 77.177774 80.921084 71.216312 -4.676646 -7.028709 1.485095 0.000213 0.004062 0.000097
